<svg width="28" height="28" viewBox="0 0 28 28" fill="none" xmlns="http://www.w3.org/2000/svg">
<g clip-path="url(#clip0_3501_1146)">
<path d="M20.7201 17.9201C17.3242 17.9201 14.5601 15.1559 14.5601 11.7601C14.5601 8.36426 17.3242 5.6001 20.7201 5.6001C24.1159 5.6001 26.8801 8.36426 26.8801 11.7601C26.8801 15.1559 24.1159 17.9201 20.7201 17.9201ZM20.7201 7.8401C18.5585 7.8401 16.8001 9.5985 16.8001 11.7601C16.8001 13.9217 18.5585 15.6801 20.7201 15.6801C22.8817 15.6801 24.6401 13.9217 24.6401 11.7601C24.6401 9.5985 22.8817 7.8401 20.7201 7.8401Z" fill="#C4C4C4"/>
<path d="M13.1208 11.9896C10.6322 11.1328 8.96 8.79088 8.96 6.16C8.96 2.76416 11.7242 0 15.12 0C17.7509 0 20.0928 1.67216 20.9496 4.1608L18.8317 4.8888C18.2862 3.304 16.7944 2.24 15.12 2.24C12.9584 2.24 11.2 3.9984 11.2 6.16C11.2 7.8344 12.264 9.32624 13.8488 9.87168L13.1208 11.9896ZM4.48 25.76H1.12C0.50064 25.76 0 25.2594 0 24.64V14.56C0 13.9406 0.50064 13.44 1.12 13.44C5.09488 13.44 7.24304 14.812 7.33152 14.8691C7.73248 15.1312 7.92288 15.6184 7.8064 16.0832L5.5664 24.9155C5.43872 25.4117 4.99296 25.76 4.48 25.76ZM2.24 23.52H3.60864L5.4096 16.4158C4.77456 16.1638 3.70944 15.839 2.24 15.7237V23.52Z" fill="#555555"/>
<path d="M15.1199 28.0001C12.5058 28.0001 7.80185 26.0412 4.31641 24.3982L5.27289 22.3721C9.77193 24.4934 13.4534 25.7601 15.1199 25.7601C17.277 25.7601 22.2823 23.4742 25.1126 22.0518C24.8594 21.9286 24.5246 21.8401 24.0799 21.8401C23.1324 21.8401 21.8634 22.2399 20.637 22.6275C19.2494 23.0665 17.8124 23.5201 16.5199 23.5201C14.1108 23.5201 10.9502 22.3811 10.8169 22.3318L11.583 20.2273C11.611 20.2374 14.5073 21.2801 16.5199 21.2801C17.4674 21.2801 18.7364 20.8803 19.9628 20.4927C21.3505 20.0537 22.7863 19.6001 24.0799 19.6001C26.4846 19.6001 27.6404 21.1379 27.9417 22.0462C28.1142 22.5647 27.889 23.1326 27.4063 23.3891C26.5226 23.8606 18.658 28.0001 15.1199 28.0001Z" fill="#555555"/>
<path d="M20.16 21.9409H17.92V21.3809C17.92 20.8691 17.5639 20.4143 17.0711 20.299L6.25635 17.6871L6.78163 15.511L17.5885 18.1206C19.0994 18.4723 20.16 19.8129 20.16 21.3809V21.9409Z" fill="#555555"/>
</g>
<defs>
<clipPath id="clip0_3501_1146">
<rect width="28" height="28" fill="white"/>
</clipPath>
</defs>
</svg>
