<svg width="24" height="24" viewBox="0 0 24 24" fill="none" xmlns="http://www.w3.org/2000/svg">
<path d="M9.96923 18.0923C5.49017 18.0923 1.84615 14.4483 1.84615 9.96923C1.84615 5.49017 5.49017 1.84615 9.96923 1.84615C14.4483 1.84615 18.0923 5.49017 18.0923 9.96923C18.0923 14.4483 14.4483 18.0923 9.96923 18.0923ZM9.96923 3.47077C6.38614 3.47077 3.47077 6.38614 3.47077 9.96923C3.47077 13.5523 6.38614 16.4677 9.96923 16.4677C13.5523 16.4677 16.4677 13.5523 16.4677 9.96923C16.4677 6.38614 13.5523 3.47077 9.96923 3.47077Z" fill="#555555"/>
<path d="M15.7125 14.564L14.5637 15.7128L20.9694 22.1183L22.1181 20.9695L15.7125 14.564Z" fill="#555555"/>
<path d="M9.96909 9.96914C8.84891 9.96914 7.93832 9.05773 7.93832 7.93837C7.93832 6.81901 8.84891 5.9076 9.96909 5.9076C11.0893 5.9076 11.9999 6.81901 11.9999 7.93837C11.9999 9.05773 11.0893 9.96914 9.96909 9.96914ZM9.96909 7.53222C9.7457 7.53222 9.56293 7.71417 9.56293 7.93837C9.56293 8.16257 9.7457 8.34453 9.96909 8.34453C10.1925 8.34453 10.3752 8.16257 10.3752 7.93837C10.3752 7.71417 10.1925 7.53222 9.96909 7.53222ZM13.6245 13.2184H11.9999V12.4061C11.9999 11.9585 11.6359 11.5938 11.1875 11.5938H8.75062C8.30223 11.5938 7.93832 11.9585 7.93832 12.4061V13.2184H6.3137V12.4061C6.3137 11.0625 7.40707 9.96914 8.75062 9.96914H11.1875C12.5311 9.96914 13.6245 11.0625 13.6245 12.4061V13.2184Z" fill="#C4C4C4"/>
</svg>
