<svg width="24" height="24" viewBox="0 0 24 24" fill="none" xmlns="http://www.w3.org/2000/svg">
<path d="M15.4082 22.1538C14.8988 22.1538 14.435 21.8346 14.2547 21.3585L10.8641 12.4589C10.8162 12.359 10.7812 12.1941 10.7812 12.0178C10.7812 11.3355 11.3361 10.7815 12.0176 10.7815C12.193 10.7815 12.3579 10.8164 12.5082 10.8846L21.3599 14.2549C21.8343 14.4344 22.1536 14.8983 22.1536 15.4084C22.1536 15.9453 21.81 16.4181 21.299 16.5838L17.7468 17.7478L16.5819 21.3025C16.4162 21.811 15.9443 22.1538 15.4082 22.1538ZM15.7721 20.7802C15.7729 20.781 15.7729 20.7802 15.7721 20.7802V20.7802ZM12.6885 12.6904L15.3805 19.7526L16.3309 16.8502C16.4114 16.6041 16.6039 16.4116 16.85 16.3312L19.7516 15.3808L12.6885 12.6904ZM20.7954 15.0388C20.7946 15.0388 20.7946 15.0388 20.7938 15.0388H20.7954ZM11.8803 12.3825C11.8876 12.3858 11.8965 12.389 11.9047 12.3915L11.8803 12.3825ZM12.362 11.8326L12.3864 11.8968C12.3799 11.8765 12.3717 11.8553 12.362 11.8326Z" fill="#C4C4C4"/>
<path d="M11.1877 20.5292C6.03686 20.5292 1.84616 16.3385 1.84616 11.1877C1.84616 6.03685 6.03686 1.84615 11.1877 1.84615C16.3385 1.84615 20.5292 6.03604 20.5292 11.1877C20.5292 11.5995 20.5024 12.0081 20.4488 12.4021L18.8388 12.1836C18.8827 11.8619 18.9046 11.5264 18.9046 11.1877C18.9046 6.93282 15.4426 3.47077 11.1877 3.47077C6.93283 3.47077 3.47078 6.93282 3.47078 11.1877C3.47078 15.4426 6.93283 18.9046 11.1877 18.9046C11.5297 18.9046 11.8635 18.8827 12.182 18.8388L12.4021 20.448C12.0114 20.5024 11.6028 20.5292 11.1877 20.5292Z" fill="#555555"/>
<path d="M10.6901 16.44C7.964 16.1874 5.90805 13.9291 5.90805 11.1876C5.90805 8.27629 8.27674 5.9076 11.1881 5.9076C13.9385 5.9076 16.1959 7.96843 16.4404 10.701L14.8223 10.8456C14.6534 8.95619 13.0913 7.53222 11.1881 7.53222C9.17272 7.53222 7.53267 9.17145 7.53267 11.1876C7.53267 13.0843 8.95502 14.6472 10.8404 14.8227L10.6901 16.44Z" fill="#555555"/>
</svg>
