<svg width="0" height="0" class="hidden">
  <symbol xmlns="http://www.w3.org/2000/svg" viewBox="0 0 14 14" id="social-vk">
    <path d="M10.9577 7.514C10.7637 7.269 10.8192 7.16 10.9577 6.941C10.9602 6.9385 12.5617 4.7255 12.7267 3.975L12.7277 3.9745C12.8097 3.701 12.7277 3.5 12.3312 3.5H11.0192C10.6852 3.5 10.5312 3.6725 10.4487 3.8655C10.4487 3.8655 9.78071 5.4645 8.83571 6.501C8.53071 6.8005 8.38971 6.8965 8.22321 6.8965C8.14121 6.8965 8.01371 6.8005 8.01371 6.527V3.9745C8.01371 3.6465 7.92021 3.5 7.64371 3.5H5.58071C5.37121 3.5 5.24671 3.653 5.24671 3.7955C5.24671 4.1065 5.71921 4.178 5.76821 5.053V6.9515C5.76821 7.3675 5.69271 7.444 5.52521 7.444C5.07921 7.444 3.99671 5.8385 3.35521 4.001C3.22571 3.6445 3.09921 3.5005 2.76271 3.5005H1.45021C1.07571 3.5005 1.00021 3.673 1.00021 3.866C1.00021 4.207 1.44621 5.9025 3.07421 8.1425C4.15921 9.6715 5.68721 10.5 7.07721 10.5C7.91271 10.5 8.01471 10.316 8.01471 9.9995C8.01471 8.5385 7.93921 8.4005 8.35771 8.4005C8.55171 8.4005 8.88571 8.4965 9.66571 9.234C10.5572 10.1085 10.7037 10.5 11.2027 10.5H12.5147C12.8887 10.5 13.0782 10.316 12.9692 9.953C12.7197 9.1895 11.0337 7.619 10.9577 7.514V7.514Z"></path>
  </symbol>
  <symbol xmlns="http://www.w3.org/2000/svg" viewBox="0 0 14 14" id="social-google">
    <path d="M1 7C1 3.6916 3.6916 1 7 1C8.33617 1 9.60086 1.42989 10.6574 2.2432L9.26309 4.0544C8.60983 3.55154 7.82726 3.28571 7 3.28571C4.95194 3.28571 3.28571 4.95194 3.28571 7C3.28571 9.04806 4.95194 10.7143 7 10.7143C8.64954 10.7143 10.0513 9.63354 10.5344 8.14286H7V5.85714H13V7C13 10.3084 10.3084 13 7 13C3.6916 13 1 10.3084 1 7Z"></path>
  </symbol>
  <symbol xmlns="http://www.w3.org/2000/svg" viewBox="0 0 14 14" id="social-facebook">
    <path d="M8.90475 2.9925H10.0002V1.0845C9.81125 1.0585 9.16125 1 8.40425 1C6.82475 1 5.74275 1.9935 5.74275 3.8195V5.5H3.99975V7.633H5.74275V13H7.87975V7.6335H9.55225L9.81775 5.5005H7.87925V4.031C7.87975 3.4145 8.04575 2.9925 8.90475 2.9925V2.9925Z"></path>
  </symbol>
  <symbol xmlns="http://www.w3.org/2000/svg" viewBox="0 0 24 24" id="search">
    <path d="M21.7269 20.3069L18.8969 17.4869C20.4311 15.5916 21.1795 13.1798 20.9878 10.7489C20.7961 8.31802 19.679 6.05336 17.8667 4.4219C16.0544 2.79045 13.6852 1.9166 11.2476 1.98056C8.81 2.04451 6.48987 3.04139 4.76563 4.76563C3.04139 6.48987 2.04451 8.81 1.98056 11.2476C1.9166 13.6852 2.79045 16.0544 4.4219 17.8667C6.05335 19.679 8.31802 20.7961 10.7489 20.9878C13.1798 21.1795 15.5916 20.4311 17.4869 18.8969L20.3069 21.7269C20.3999 21.8206 20.5105 21.895 20.6323 21.9458C20.7542 21.9966 20.8849 22.0227 21.0169 22.0227C21.1489 22.0227 21.2796 21.9966 21.4015 21.9458C21.5234 21.895 21.634 21.8206 21.7269 21.7269C21.8207 21.634 21.895 21.5234 21.9458 21.4015C21.9966 21.2796 22.0227 21.1489 22.0227 21.0169C22.0227 20.8849 21.9966 20.7542 21.9458 20.6323C21.895 20.5105 21.8207 20.3999 21.7269 20.3069V20.3069ZM4.01692 11.5169C4.01692 10.0336 4.45679 8.58351 5.2809 7.35014C6.10501 6.11678 7.27635 5.15548 8.6468 4.58782C10.0172 4.02017 11.5252 3.87164 12.9801 4.16103C14.435 4.45042 15.7713 5.16473 16.8202 6.21362C17.8691 7.26251 18.5834 8.59889 18.8728 10.0537C19.1622 11.5086 19.0137 13.0166 18.446 14.387C17.8784 15.7575 16.9171 16.9288 15.6837 17.7529C14.4503 18.5771 13.0003 19.0169 11.5169 19.0169C9.5278 19.0169 7.62014 18.2267 6.21362 16.8202C4.8071 15.4137 4.01692 13.506 4.01692 11.5169V11.5169Z"></path>
  </symbol>
  <symbol xmlns="http://www.w3.org/2000/svg" viewBox="0 0 24 24" id="hamburger-icon">
    <path d="M2 7H22C22.2652 7 22.5196 6.89465 22.7071 6.70711C22.8947 6.51957 23 6.26522 23 6C23 5.73478 22.8947 5.48043 22.7071 5.29289C22.5196 5.10536 22.2652 5 22 5H2C1.73478 5 1.48043 5.10536 1.29289 5.29289C1.10536 5.48043 1 5.73478 1 6C1 6.26522 1.10536 6.51957 1.29289 6.70711C1.48043 6.89465 1.73478 7 2 7V7Z"></path>
    <path d="M22 11H2C1.73478 11 1.48043 11.1054 1.29289 11.2929C1.10536 11.4804 1 11.7348 1 12C1 12.2652 1.10536 12.5196 1.29289 12.7071C1.48043 12.8946 1.73478 13 2 13H22C22.2652 13 22.5196 12.8946 22.7071 12.7071C22.8947 12.5196 23 12.2652 23 12C23 11.7348 22.8947 11.4804 22.7071 11.2929C22.5196 11.1054 22.2652 11 22 11Z"></path>
    <path d="M22 17H2C1.73478 17 1.48043 17.1054 1.29289 17.2929C1.10536 17.4804 1 17.7348 1 18C1 18.2652 1.10536 18.5196 1.29289 18.7071C1.48043 18.8947 1.73478 19 2 19H22C22.2652 19 22.5196 18.8947 22.7071 18.7071C22.8947 18.5196 23 18.2652 23 18C23 17.7348 22.8947 17.4804 22.7071 17.2929C22.5196 17.1054 22.2652 17 22 17Z"></path>
  </symbol>
  <symbol xmlns="http://www.w3.org/2000/svg" viewBox="0 0 14 14" id="arrow-1">
    <path d="M9.29249 5.14648L7 7.43898L4.70751 5.14648L4 5.85397L7 8.85397L10 5.85397L9.29249 5.14648Z"></path>
  </symbol>
  <symbol xmlns="http://www.w3.org/2000/svg" viewBox="0 0 14 14" id="social-yandex">
    <path d="M9.51942 1H7.81444C6.08708 1 4.34416 2.27553 4.34416 5.12515C4.34416 6.60119 4.96977 7.75079 6.11652 8.40456L4.01757 12.2036C3.91808 12.3832 3.91549 12.5869 4.01063 12.7483C4.10352 12.9059 4.27332 13 4.46483 13H5.52649C5.76769 13 5.95579 12.8834 6.04594 12.6792L8.01391 8.83H8.15753V12.5203C8.15753 12.7803 8.37698 13 8.63671 13H9.56427C9.85553 13 10.0589 12.7966 10.0589 12.5054V1.52508C10.059 1.21592 9.83712 1 9.51942 1ZM8.15757 7.12015H7.90422C6.92183 7.12015 6.33533 6.31825 6.33533 4.97508C6.33533 3.30494 7.07622 2.70989 7.76959 2.70989H8.15757V7.12015Z"></path>
  </symbol>
  <symbol xmlns="http://www.w3.org/2000/svg" viewBox="0 0 24 24" id="arrow-2">
    <path fill-rule="evenodd" clip-rule="evenodd" d="m14.927 7.594 3.84 3.84a.799.799 0 0 1 0 1.132l-3.84 3.84-1.132-1.132L17.07 12l-3.276-3.274 1.132-1.132Z"></path>
    <path fill-rule="evenodd" clip-rule="evenodd" d="M4.999 11.2h13.2v1.6h-13.2v-1.6Z"></path>
  </symbol>
  <symbol xmlns="http://www.w3.org/2000/svg" viewBox="0 0 24 24" id="refresh">
    <path fill-rule="evenodd" clip-rule="evenodd" d="M10 4.2h2a7.8 7.8 0 0 1 7.8 7.8v7h-1.6v-7A6.2 6.2 0 0 0 12 5.8h-2V4.2Z"></path>
    <path fill-rule="evenodd" clip-rule="evenodd" d="m18.434 19.566-4-4 1.132-1.132L19 17.87l3.434-3.435 1.132 1.132-4 4a.8.8 0 0 1-1.132 0ZM4.2 12V5h1.6v7a6.2 6.2 0 0 0 6.2 6.2h2v1.6h-2A7.8 7.8 0 0 1 4.2 12Z"></path>
    <path fill-rule="evenodd" clip-rule="evenodd" d="M4.434 4.434a.8.8 0 0 1 1.132 0l4 4-1.132 1.132L5 6.13 1.566 9.566.434 8.434l4-4Z"></path>
  </symbol>
  <symbol xmlns="http://www.w3.org/2000/svg" viewBox="0 0 24 24" id="eye">
    <path d="M11.998 17.905a7.613 7.613 0 0 1-7.41-5.289 1.982 1.982 0 0 1-.088-.582c-.005-.22.025-.439.087-.65a7.613 7.613 0 0 1 7.41-5.29 7.608 7.608 0 0 1 7.417 5.314 2.055 2.055 0 0 1 0 1.182 7.61 7.61 0 0 1-7.417 5.315Zm0-10.311a6.122 6.122 0 0 0-5.976 4.228.5.5 0 0 0-.022.147c-.004.07.004.14.022.207a6.123 6.123 0 0 0 5.976 4.23 6.119 6.119 0 0 0 5.98-4.248.508.508 0 0 0 .022-.144.554.554 0 0 0-.022-.173 6.119 6.119 0 0 0-5.98-4.247Z"></path>
    <path d="M12 14.618a2.62 2.62 0 0 1-2.319-3.835 2.619 2.619 0 1 1 2.32 3.835H12Zm-.99-3.137a1.118 1.118 0 1 0 1.981 1.036 1.118 1.118 0 0 0-1.982-1.036Z"></path>
  </symbol>
  <symbol xmlns="http://www.w3.org/2000/svg" viewBox="0 0 24 24" id="comment">
    <path d="M17.995 18.315c-.357 0-.701-.129-.971-.362l-1.65-1.41a1.754 1.754 0 0 0-1.139-.42H7.752A3.256 3.256 0 0 1 4.5 12.87V8.938a3.257 3.257 0 0 1 3.253-3.253h8.496a3.257 3.257 0 0 1 3.253 3.253v7.874a1.486 1.486 0 0 1-.874 1.363c-.198.092-.414.14-.632.14ZM7.752 7.186a1.754 1.754 0 0 0-1.751 1.752v3.932a1.754 1.754 0 0 0 1.751 1.751h6.483c.775 0 1.525.277 2.114.78l1.65 1.41V8.939a1.753 1.753 0 0 0-1.751-1.752H7.752Z"></path>
  </symbol>
  <symbol xmlns="http://www.w3.org/2000/svg" viewBox="0 0 24 24" id="telegram">
    <path d="m10.494 13.855-.232 3.259c.331 0 .475-.142.647-.314l1.553-1.484 3.22 2.357c.59.329 1.006.156 1.165-.543l2.113-9.9c.188-.875-.315-1.216-.89-1.002L5.65 10.985c-.848.329-.835.802-.144 1.015l3.175.988 7.376-4.615c.347-.23.663-.103.403.128l-5.965 5.354h-.001Z"></path>
  </symbol>
  <symbol xmlns="http://www.w3.org/2000/svg" viewBox="0 0 14 14" id="rss">
    <path d="M2.462 2.462v1.65c4.1 0 7.425 3.325 7.425 7.426h1.651c0-5.01-4.066-9.076-9.076-9.076Zm0 3.301v1.651a4.128 4.128 0 0 1 4.124 4.124h1.65a5.773 5.773 0 0 0-5.774-5.775Z"></path>
  </symbol>
  <symbol xmlns="http://www.w3.org/2000/svg" viewBox="0 0 14 14" id="translate">
    <path d="M12.368 2.76H7.743c-.305.002-.6.114-.83.315l-.32-1.535A1.235 1.235 0 0 0 5.503.455h-4.17A1.33 1.33 0 0 0 .178 1.91v8.415a1.33 1.33 0 0 0 1.155 1.455h5.905a.934.934 0 0 0 .37-.09l.09.475a1.55 1.55 0 0 0 1.42 1.38h3.25c.816 0 1.46-.79 1.46-1.8V4.56c0-1.01-.644-1.8-1.46-1.8ZM6.083 6.72a2.385 2.385 0 1 1-.23-1L5.178 6a1.645 1.645 0 1 0 .115 1.08H3.878v-.73h2.205v.37Zm6.626 5c0 .425-.22.68-.34.68h-3.25c-.096 0-.26-.16-.32-.47L7.422 4.77a1 1 0 0 1 .16-.77.255.255 0 0 1 .16-.1h4.625c.12 0 .34.255.34.68v7.14Z"></path>
  </symbol>
  <symbol xmlns="http://www.w3.org/2000/svg" viewBox="0 0 14 14" id="favorite">
    <path d="M4.145 12.655A1.263 1.263 0 0 1 2.9 11.189l.408-2.527-1.816-1.804a1.263 1.263 0 0 1 .697-2.143l2.53-.392 1.154-2.285a1.263 1.263 0 0 1 2.254 0l1.154 2.285 2.53.392a1.263 1.263 0 0 1 .698 2.143l-1.817 1.804.408 2.527a1.262 1.262 0 0 1-1.823 1.325L7 11.344l-2.277 1.17c-.179.093-.377.14-.578.141ZM7 10.082c.2 0 .398.048.577.14l2.277 1.169-.408-2.527a1.261 1.261 0 0 1 .356-1.098l1.816-1.804-2.53-.391a1.268 1.268 0 0 1-.934-.679L6.998 2.604 5.846 4.892a1.266 1.266 0 0 1-.934.678l-2.53.393 1.816 1.804a1.265 1.265 0 0 1 .357 1.097l-.409 2.527 2.277-1.17c.179-.091.376-.139.577-.139Z"></path>
  </symbol>
  <symbol xmlns="http://www.w3.org/2000/svg" viewBox="0 0 24 24" id="play-btn-icon">
    <path d="M8.461 19.677a3.604 3.604 0 0 1-3.588-3.595v-8.17a3.589 3.589 0 0 1 5.383-3.108l7.077 4.085a3.59 3.59 0 0 1 0 6.216l-7.077 4.086a3.585 3.585 0 0 1-1.795.486Zm0-13.5A1.738 1.738 0 0 0 6.73 7.91v8.171a1.732 1.732 0 0 0 2.598 1.5l7.076-4.085a1.732 1.732 0 0 0 0-3L9.328 6.411a1.731 1.731 0 0 0-.867-.235Z"></path>
  </symbol>
</svg>