<svg width="14" height="14" xmlns="http://www.w3.org/2000/svg"><path d="M4.145 12.655A1.263 1.263 0 0 1 2.9 11.189l.408-2.527-1.816-1.804a1.263 1.263 0 0 1 .697-2.143l2.53-.392 1.154-2.285a1.263 1.263 0 0 1 2.254 0l1.154 2.285 2.53.392a1.263 1.263 0 0 1 .698 2.143l-1.817 1.804.408 2.527a1.262 1.262 0 0 1-1.823 1.325L7 11.344l-2.277 1.17c-.179.093-.377.14-.578.141ZM7 10.082c.2 0 .398.048.577.14l2.277 1.169-.408-2.527a1.261 1.261 0 0 1 .356-1.098l1.816-1.804-2.53-.391a1.268 1.268 0 0 1-.934-.679L6.998 2.604 5.846 4.892a1.266 1.266 0 0 1-.934.678l-2.53.393 1.816 1.804a1.265 1.265 0 0 1 .357 1.097l-.409 2.527 2.277-1.17c.179-.091.376-.139.577-.139Z"/></svg>