<svg width="24" height="24" viewBox="0 0 24 24" xmlns="http://www.w3.org/2000/svg"><path d="M2 7H22C22.2652 7 22.5196 6.89465 22.7071 6.70711C22.8947 6.51957 23 6.26522 23 6C23 5.73478 22.8947 5.48043 22.7071 5.29289C22.5196 5.10536 22.2652 5 22 5H2C1.73478 5 1.48043 5.10536 1.29289 5.29289C1.10536 5.48043 1 5.73478 1 6C1 6.26522 1.10536 6.51957 1.29289 6.70711C1.48043 6.89465 1.73478 7 2 7V7Z"/><path d="M22 11H2C1.73478 11 1.48043 11.1054 1.29289 11.2929C1.10536 11.4804 1 11.7348 1 12C1 12.2652 1.10536 12.5196 1.29289 12.7071C1.48043 12.8946 1.73478 13 2 13H22C22.2652 13 22.5196 12.8946 22.7071 12.7071C22.8947 12.5196 23 12.2652 23 12C23 11.7348 22.8947 11.4804 22.7071 11.2929C22.5196 11.1054 22.2652 11 22 11Z"/><path d="M22 17H2C1.73478 17 1.48043 17.1054 1.29289 17.2929C1.10536 17.4804 1 17.7348 1 18C1 18.2652 1.10536 18.5196 1.29289 18.7071C1.48043 18.8947 1.73478 19 2 19H22C22.2652 19 22.5196 18.8947 22.7071 18.7071C22.8947 18.5196 23 18.2652 23 18C23 17.7348 22.8947 17.4804 22.7071 17.2929C22.5196 17.1054 22.2652 17 22 17Z"/></svg>