<svg width="24" height="24" xmlns="http://www.w3.org/2000/svg"><path fill-rule="evenodd" clip-rule="evenodd" d="M10 4.2h2a7.8 7.8 0 0 1 7.8 7.8v7h-1.6v-7A6.2 6.2 0 0 0 12 5.8h-2V4.2Z"/><path fill-rule="evenodd" clip-rule="evenodd" d="m18.434 19.566-4-4 1.132-1.132L19 17.87l3.434-3.435 1.132 1.132-4 4a.8.8 0 0 1-1.132 0ZM4.2 12V5h1.6v7a6.2 6.2 0 0 0 6.2 6.2h2v1.6h-2A7.8 7.8 0 0 1 4.2 12Z"/><path fill-rule="evenodd" clip-rule="evenodd" d="M4.434 4.434a.8.8 0 0 1 1.132 0l4 4-1.132 1.132L5 6.13 1.566 9.566.434 8.434l4-4Z"/></svg>