<svg width="24" height="24" xmlns="http://www.w3.org/2000/svg"><path d="M11.998 17.905a7.613 7.613 0 0 1-7.41-5.289 1.982 1.982 0 0 1-.088-.582c-.005-.22.025-.439.087-.65a7.613 7.613 0 0 1 7.41-5.29 7.608 7.608 0 0 1 7.417 5.314 2.055 2.055 0 0 1 0 1.182 7.61 7.61 0 0 1-7.417 5.315Zm0-10.311a6.122 6.122 0 0 0-5.976 4.228.5.5 0 0 0-.022.147c-.004.07.004.14.022.207a6.123 6.123 0 0 0 5.976 4.23 6.119 6.119 0 0 0 5.98-4.248.508.508 0 0 0 .022-.144.554.554 0 0 0-.022-.173 6.119 6.119 0 0 0-5.98-4.247Z"/><path d="M12 14.618a2.62 2.62 0 0 1-2.319-3.835 2.619 2.619 0 1 1 2.32 3.835H12Zm-.99-3.137a1.118 1.118 0 1 0 1.981 1.036 1.118 1.118 0 0 0-1.982-1.036Z"/></svg>