<svg width="24" height="24" viewBox="0 0 24 24" xmlns="http://www.w3.org/2000/svg"><path d="M21.7269 20.3069L18.8969 17.4869C20.4311 15.5916 21.1795 13.1798 20.9878 10.7489C20.7961 8.31802 19.679 6.05336 17.8667 4.4219C16.0544 2.79045 13.6852 1.9166 11.2476 1.98056C8.81 2.04451 6.48987 3.04139 4.76563 4.76563C3.04139 6.48987 2.04451 8.81 1.98056 11.2476C1.9166 13.6852 2.79045 16.0544 4.4219 17.8667C6.05335 19.679 8.31802 20.7961 10.7489 20.9878C13.1798 21.1795 15.5916 20.4311 17.4869 18.8969L20.3069 21.7269C20.3999 21.8206 20.5105 21.895 20.6323 21.9458C20.7542 21.9966 20.8849 22.0227 21.0169 22.0227C21.1489 22.0227 21.2796 21.9966 21.4015 21.9458C21.5234 21.895 21.634 21.8206 21.7269 21.7269C21.8207 21.634 21.895 21.5234 21.9458 21.4015C21.9966 21.2796 22.0227 21.1489 22.0227 21.0169C22.0227 20.8849 21.9966 20.7542 21.9458 20.6323C21.895 20.5105 21.8207 20.3999 21.7269 20.3069V20.3069ZM4.01692 11.5169C4.01692 10.0336 4.45679 8.58351 5.2809 7.35014C6.10501 6.11678 7.27635 5.15548 8.6468 4.58782C10.0172 4.02017 11.5252 3.87164 12.9801 4.16103C14.435 4.45042 15.7713 5.16473 16.8202 6.21362C17.8691 7.26251 18.5834 8.59889 18.8728 10.0537C19.1622 11.5086 19.0137 13.0166 18.446 14.387C17.8784 15.7575 16.9171 16.9288 15.6837 17.7529C14.4503 18.5771 13.0003 19.0169 11.5169 19.0169C9.5278 19.0169 7.62014 18.2267 6.21362 16.8202C4.8071 15.4137 4.01692 13.506 4.01692 11.5169V11.5169Z"/></svg>