<svg width="14" height="14" viewBox="0 0 14 14" xmlns="http://www.w3.org/2000/svg"><path d="M9.51942 1H7.81444C6.08708 1 4.34416 2.27553 4.34416 5.12515C4.34416 6.60119 4.96977 7.75079 6.11652 8.40456L4.01757 12.2036C3.91808 12.3832 3.91549 12.5869 4.01063 12.7483C4.10352 12.9059 4.27332 13 4.46483 13H5.52649C5.76769 13 5.95579 12.8834 6.04594 12.6792L8.01391 8.83H8.15753V12.5203C8.15753 12.7803 8.37698 13 8.63671 13H9.56427C9.85553 13 10.0589 12.7966 10.0589 12.5054V1.52508C10.059 1.21592 9.83712 1 9.51942 1ZM8.15757 7.12015H7.90422C6.92183 7.12015 6.33533 6.31825 6.33533 4.97508C6.33533 3.30494 7.07622 2.70989 7.76959 2.70989H8.15757V7.12015Z"/></svg>