<svg width="14" height="14" viewBox="0 0 14 14" xmlns="http://www.w3.org/2000/svg"><path d="M10.9577 7.514C10.7637 7.269 10.8192 7.16 10.9577 6.941C10.9602 6.9385 12.5617 4.7255 12.7267 3.975L12.7277 3.9745C12.8097 3.701 12.7277 3.5 12.3312 3.5H11.0192C10.6852 3.5 10.5312 3.6725 10.4487 3.8655C10.4487 3.8655 9.78071 5.4645 8.83571 6.501C8.53071 6.8005 8.38971 6.8965 8.22321 6.8965C8.14121 6.8965 8.01371 6.8005 8.01371 6.527V3.9745C8.01371 3.6465 7.92021 3.5 7.64371 3.5H5.58071C5.37121 3.5 5.24671 3.653 5.24671 3.7955C5.24671 4.1065 5.71921 4.178 5.76821 5.053V6.9515C5.76821 7.3675 5.69271 7.444 5.52521 7.444C5.07921 7.444 3.99671 5.8385 3.35521 4.001C3.22571 3.6445 3.09921 3.5005 2.76271 3.5005H1.45021C1.07571 3.5005 1.00021 3.673 1.00021 3.866C1.00021 4.207 1.44621 5.9025 3.07421 8.1425C4.15921 9.6715 5.68721 10.5 7.07721 10.5C7.91271 10.5 8.01471 10.316 8.01471 9.9995C8.01471 8.5385 7.93921 8.4005 8.35771 8.4005C8.55171 8.4005 8.88571 8.4965 9.66571 9.234C10.5572 10.1085 10.7037 10.5 11.2027 10.5H12.5147C12.8887 10.5 13.0782 10.316 12.9692 9.953C12.7197 9.1895 11.0337 7.619 10.9577 7.514V7.514Z"/></svg>