<svg width="14" height="14" xmlns="http://www.w3.org/2000/svg"><path d="M12.368 2.76H7.743c-.305.002-.6.114-.83.315l-.32-1.535A1.235 1.235 0 0 0 5.503.455h-4.17A1.33 1.33 0 0 0 .178 1.91v8.415a1.33 1.33 0 0 0 1.155 1.455h5.905a.934.934 0 0 0 .37-.09l.09.475a1.55 1.55 0 0 0 1.42 1.38h3.25c.816 0 1.46-.79 1.46-1.8V4.56c0-1.01-.644-1.8-1.46-1.8ZM6.083 6.72a2.385 2.385 0 1 1-.23-1L5.178 6a1.645 1.645 0 1 0 .115 1.08H3.878v-.73h2.205v.37Zm6.626 5c0 .425-.22.68-.34.68h-3.25c-.096 0-.26-.16-.32-.47L7.422 4.77a1 1 0 0 1 .16-.77.255.255 0 0 1 .16-.1h4.625c.12 0 .34.255.34.68v7.14Z"/></svg>