<svg width="24" height="24" viewBox="0 0 24 24" fill="none" xmlns="http://www.w3.org/2000/svg">
<path d="M11.1885 22.1537C6.48522 22.1537 2.65925 18.3278 2.65925 13.6245C2.65925 13.1753 3.02317 12.8122 3.47156 12.8122H11.1885C11.5004 12.8122 11.7847 12.9909 11.9204 13.2712L15.2752 20.2245C15.3686 20.4187 15.3816 20.6428 15.3101 20.8459C15.2386 21.0498 15.09 21.2163 14.895 21.3098C13.7294 21.8694 12.4825 22.1537 11.1885 22.1537ZM4.3318 14.4368C4.7347 17.8631 7.65576 20.5291 11.1885 20.5291C11.9626 20.5291 12.7156 20.404 13.4378 20.1555L10.6792 14.4368H4.3318Z" fill="#555555"/>
<path d="M16.9802 19.3596C16.8901 19.3596 16.7999 19.3441 16.713 19.3141C16.5099 19.2434 16.3426 19.0939 16.2484 18.8998L12.8935 11.9465C12.8407 11.8368 12.8131 11.7158 12.8131 11.5939V3.87699C12.8131 3.42778 13.177 3.06468 13.6254 3.06468C18.3287 3.06468 22.1546 6.89065 22.1546 11.5939C22.1546 14.8935 20.3075 17.8381 17.3344 19.2783C17.2231 19.332 17.1013 19.3596 16.9802 19.3596ZM14.4377 11.4079L17.3377 17.419C19.3254 16.1575 20.53 13.991 20.53 11.5939C20.53 8.06118 17.864 5.14012 14.4377 4.73722V11.4079Z" fill="#C4C4C4"/>
<path d="M10.3754 11.1877H2.65846C2.21007 11.1877 1.84615 10.8246 1.84615 10.3754C1.84615 5.67212 5.67212 1.84615 10.3754 1.84615C10.8238 1.84615 11.1877 2.20926 11.1877 2.65846V10.3754C11.1877 10.8246 10.8238 11.1877 10.3754 11.1877ZM3.51869 9.56308H9.56308V3.5187C6.4032 3.89073 3.88992 6.4032 3.51869 9.56308Z" fill="#555555"/>
</svg>
