<svg width="24" height="24" viewBox="0 0 24 24" fill="none" xmlns="http://www.w3.org/2000/svg">
<path d="M19.7169 22.1538H4.28308C2.93952 22.1538 1.84615 21.0605 1.84615 19.7169V4.28308C1.84615 2.93952 2.93952 1.84615 4.28308 1.84615H19.7169C21.0605 1.84615 22.1538 2.93952 22.1538 4.28308V19.7169C22.1538 21.0605 21.0605 22.1538 19.7169 22.1538ZM4.28308 3.47077C3.8355 3.47077 3.47077 3.8355 3.47077 4.28308V19.7169C3.47077 20.1645 3.8355 20.5292 4.28308 20.5292H19.7169C20.1645 20.5292 20.5292 20.1645 20.5292 19.7169V4.28308C20.5292 3.8355 20.1645 3.47077 19.7169 3.47077H4.28308Z" fill="#555555"/>
<path d="M9.96959 11.5938H7.53267C6.63669 11.5938 5.90805 10.8651 5.90805 9.96914V7.53222C5.90805 6.63624 6.63669 5.9076 7.53267 5.9076H9.96959C10.8656 5.9076 11.5942 6.63624 11.5942 7.53222V9.96914C11.5942 10.8651 10.8656 11.5938 9.96959 11.5938ZM7.53267 7.53222V9.96914H9.9704L9.96959 7.53222H7.53267ZM16.4681 11.5938H14.0311C13.1352 11.5938 12.4065 10.8651 12.4065 9.96914V7.53222C12.4065 6.63624 13.1352 5.9076 14.0311 5.9076H16.4681C17.364 5.9076 18.0927 6.63624 18.0927 7.53222V9.96914C18.0927 10.8651 17.364 11.5938 16.4681 11.5938ZM14.0311 7.53222V9.96914H16.4689L16.4681 7.53222H14.0311ZM9.96959 18.0922H7.53267C6.63669 18.0922 5.90805 17.3636 5.90805 16.4676V14.0307C5.90805 13.1347 6.63669 12.4061 7.53267 12.4061H9.96959C10.8656 12.4061 11.5942 13.1347 11.5942 14.0307V16.4676C11.5942 17.3636 10.8656 18.0922 9.96959 18.0922ZM7.53267 14.0307V16.4676H9.9704L9.96959 14.0307H7.53267ZM16.4681 18.0922H14.0311C13.1352 18.0922 12.4065 17.3636 12.4065 16.4676V14.0307C12.4065 13.1347 13.1352 12.4061 14.0311 12.4061H16.4681C17.364 12.4061 18.0927 13.1347 18.0927 14.0307V16.4676C18.0927 17.3636 17.364 18.0922 16.4681 18.0922ZM14.0311 14.0307V16.4676H16.4689L16.4681 14.0307H14.0311Z" fill="#C4C4C4"/>
</svg>
