<svg width="160" height="40" fill="none" xmlns="http://www.w3.org/2000/svg"><g clip-path="url(#a)"><path fill-rule="evenodd" clip-rule="evenodd" d="m54.934 2.645-2.115 11.321a55.518 55.518 0 0 0-.393 2.299c-.033.213.05.336.23.394l1.352.402-.107.591a176.15 176.15 0 0 0-3.54-.033c-1.14 0-2.352.009-3.623.033l.066-.59 1.565-.428c.221-.065.353-.18.394-.361.139-.616.295-1.38.467-2.299l1.745-9.236c.148-.772.254-1.42.336-1.937.041-.206-.024-.337-.196-.395l-1.517-.451.107-.591c1.352.033 2.565.049 3.647.057h10.13c1.196 0 2.45-.016 3.762-.049l-.066.591-1.737.452a.5.5 0 0 0-.345.394c-.115.509-.246 1.15-.393 1.92l-1.746 9.22c-.164.912-.295 1.684-.401 2.308-.025.18.049.295.23.36l1.49.428-.106.59a207.157 207.157 0 0 0-3.72-.032c-1.148 0-2.303.008-3.45.033l.073-.591 1.467-.403a.5.5 0 0 0 .385-.394c.14-.616.295-1.379.459-2.299l2.082-11.32h-6.532v.016Zm9.49 20.04-.065.566a178.684 178.684 0 0 1 6.827 0l.114-.566-1.68-.427c-.188-.05-.262-.189-.23-.419a20.54 20.54 0 0 1 .312-1.625l.484-2.414c.475.058.91.09 1.311.09 2.172 0 3.934-.665 5.286-2.011 1.352-1.338 2.033-3.079 2.033-5.213 0-1.1-.32-2.036-.943-2.808-.63-.78-1.41-1.166-2.336-1.166-.565 0-1.672.427-3.335 1.264h-.025l.008-.14c0-.393-.139-.672-.426-.853-.278-.18-.672-.271-1.188-.271-.86 0-1.959.18-3.303.534l-.074.533c.803 0 1.303.041 1.484.123.18.083.27.23.27.444 0 .09-.033.287-.098.59l-2.14 10.452a59.3 59.3 0 0 1-.54 2.561c-.033.173-.156.288-.369.362l-1.377.394Zm5.983-5.96 1.565-7.652c.795-.443 1.484-.665 2.058-.665.475 0 .835.263 1.065.796.23.526.344 1.215.344 2.06 0 1.479-.369 2.776-1.098 3.884-.738 1.117-1.746 1.667-3.024 1.667a4.066 4.066 0 0 1-.91-.09Zm21.989-9.902c-.287.944-.574 2.151-.869 3.62l-1.04 5.157c-.042.18-.058.328-.058.443 0 .164.033.287.098.386a.663.663 0 0 0 .312.23c.139.057.327.098.557.115.221.016.508.024.836.024l-.082.55c-1.352.329-2.369.485-3.057.485-.574 0-1.033-.131-1.36-.386-.328-.263-.492-.632-.492-1.117v-.23c-1.394 1.232-2.402 1.848-3.016 1.848-1.05 0-1.926-.403-2.615-1.215-.696-.805-1.04-1.831-1.04-3.079 0-1.954.663-3.604 1.991-4.95 1.328-1.347 3.016-2.02 5.04-2.02.894 0 1.86.148 2.893.435.566-.107 1.14-.238 1.697-.41l.205.114ZM88.822 8.03c-.418-.197-.893-.287-1.425-.287-1.009 0-1.845.575-2.5 1.74a7.465 7.465 0 0 0-.984 3.736c0 .78.123 1.461.36 2.06.247.592.525.887.837.887.434 0 1.196-.418 2.295-1.24l1.417-6.896ZM101.74 11.8c1.081.23 1.852.55 2.311.952.459.402.688.903.688 1.502 0 1.133-.631 2.036-1.877 2.693a8.545 8.545 0 0 1-4.04.985c-3.016 0-4.532-1.223-4.532-3.67 0-2.323.647-4.162 1.95-5.541 1.304-1.371 3.04-2.06 5.205-2.06 1.213 0 2.155.188 2.835.557.68.362 1.016.92 1.016 1.675 0 1.355-1.188 2.307-3.565 2.866l.009.04Zm-4.024.87a12.474 12.474 0 0 0-.099 1.584c0 .92.115 1.577.336 1.962.222.386.59.583 1.099.583.622 0 1.147-.254 1.565-.763.418-.51.623-1.141.623-1.897 0-.558-.164-.968-.492-1.24-.328-.27-.795-.41-1.41-.41a9.869 9.869 0 0 0-1.622.18Zm.139-.977c1.54-.082 2.614-.296 3.229-.665.615-.361.926-.977.926-1.831 0-.443-.098-.788-.303-1.06-.205-.262-.492-.393-.869-.393-.713 0-1.336.345-1.868 1.043-.525.706-.894 1.666-1.115 2.906Zm15.276-5.025c1.664 0 3 .435 4 1.306 1 .87 1.491 2.036 1.491 3.505 0 1.856-.606 3.4-1.811 4.614-1.205 1.224-2.762 1.831-4.679 1.831-1.689 0-3.024-.435-4.016-1.305-.984-.87-1.475-2.02-1.475-3.448 0-1.88.59-3.432 1.778-4.664 1.188-1.223 2.754-1.839 4.712-1.839Zm-.139 1.199c-.86 0-1.565.525-2.131 1.585-.565 1.059-.844 2.315-.836 3.784.009 1.1.205 1.954.59 2.57.386.616.935.928 1.648.928.885 0 1.59-.542 2.131-1.626.541-1.092.811-2.34.811-3.752 0-1.1-.197-1.954-.59-2.57-.402-.607-.934-.919-1.623-.919ZM118.088 22.685l1.394-.394c.221-.074.336-.19.368-.362.066-.287.148-.64.238-1.059.09-.427.188-.92.303-1.502l2.139-10.451c.066-.312.099-.51.099-.591a.461.461 0 0 0-.271-.444c-.18-.082-.672-.123-1.483-.123l.073-.534c1.345-.353 2.443-.533 3.303-.533.509 0 .902.09 1.189.27.286.181.426.46.426.855l-.008.14h.024c1.656-.846 2.77-1.265 3.336-1.265.926 0 1.704.386 2.335 1.166.632.78.943 1.715.943 2.807 0 2.135-.672 3.876-2.032 5.214-1.353 1.338-3.115 2.011-5.287 2.011-.401 0-.836-.033-1.311-.09l-.483 2.413c-.082.395-.148.723-.205.986-.049.262-.09.476-.107.64-.033.23.049.37.23.419l1.68.427-.115.566a177.344 177.344 0 0 0-6.827 0l.049-.566Zm5.983-5.96c.336.065.631.098.902.098 1.278 0 2.286-.558 3.024-1.667.737-1.116 1.098-2.405 1.098-3.883 0-.846-.115-1.535-.344-2.06-.23-.534-.59-.797-1.066-.797-.573 0-1.262.222-2.057.665l-1.557 7.643Zm17.997-9.245c1.14-.32 2.181-.616 3.115-.887l.254.173a41.83 41.83 0 0 1-.934 2.356 41.6 41.6 0 0 1-1.959 3.916c-.328.575-.648 1.117-.951 1.634-.328.534-.631 1.034-.91 1.502-.287.468-.549.92-.795 1.355-.204.337-.409.722-.622 1.15-.213.434-.418.87-.623 1.313-.205.443-.394.878-.558 1.297-.172.427-.311.788-.426 1.1a1.95 1.95 0 0 1-.344.6 1.34 1.34 0 0 1-.492.32 2.398 2.398 0 0 1-.688.123 24.968 24.968 0 0 1-3.459-.09l-.057-.592c.459-.057.885-.14 1.27-.254.385-.115.705-.287.976-.5a6.22 6.22 0 0 0 .541-.469c.196-.189.426-.443.688-.772.27-.328.582-.739.942-1.231.361-.5.779-1.117 1.271-1.864l-.648-.148a21.924 21.924 0 0 0-.254-1.46 36.773 36.773 0 0 0-.401-1.741c-.156-.6-.328-1.216-.5-1.823a37.558 37.558 0 0 0-.533-1.708c-.18-.525-.344-.993-.508-1.387-.164-.402-.303-.69-.418-.87a1.44 1.44 0 0 0-.402-.427 1.477 1.477 0 0 0-.483-.206 2.932 2.932 0 0 0-.566-.082l-.655-.024.073-.534c1.32-.353 2.344-.534 3.082-.534.418 0 .787.066 1.115.19.327.122.565.328.721.599.114.213.254.517.426.92.172.401.344.87.524 1.395.181.533.361 1.108.541 1.724.181.616.344 1.248.484 1.896l.221 1.248a19.505 19.505 0 0 0 1.41-3.546c.303-1.207.491-2.422.532-3.662ZM159.394.157l.59.336c-.516 1.19-1.008 2.02-1.483 2.496a2.343 2.343 0 0 1-1.722.706c-.245 0-.712-.09-1.401-.27-.68-.181-1.303-.272-1.836-.272-1.368 0-2.459 1.585-3.278 4.77 1.279-.714 2.418-1.067 3.418-1.067 1.319 0 2.418.443 3.302 1.322.877.878 1.32 1.978 1.32 3.308 0 1.798-.631 3.334-1.878 4.581-1.245 1.257-2.835 1.88-4.761 1.88-1.712 0-3.032-.5-3.958-1.494-.918-1.001-1.385-2.413-1.385-4.252 0-1.174.164-2.266.5-3.284.328-1.01.762-1.93 1.303-2.759.541-.82 1.139-1.56 1.819-2.192a12.944 12.944 0 0 1 2.033-1.6 9.416 9.416 0 0 1 1.975-.986c.631-.222 1.164-.337 1.599-.337.262 0 .63.041 1.105.115.476.082.877.123 1.198.123.277 0 .524-.065.72-.197.205-.147.476-.451.82-.927Zm-9.343 8.719c-.254 1.346-.385 2.57-.385 3.678 0 1.305.196 2.34.582 3.087.385.747.958 1.124 1.713 1.124.885 0 1.589-.525 2.139-1.56.54-1.042.811-2.216.811-3.505 0-1.084-.222-1.905-.672-2.48-.451-.566-1.098-.853-1.943-.853-.631 0-1.385.164-2.245.509Z" fill="#F04149"/><path fill-rule="evenodd" clip-rule="evenodd" d="M135.324 7.365c.279-.041.533-.057.746-.057.336 0 .623.049.885.147.262.099.451.263.574.477.09.164.205.41.344.73.139.32.27.69.418 1.117.139.427.287.878.426 1.37.148.493.279.994.385 1.512l.058.303-1.771-4.244a5.685 5.685 0 0 0-.344-.731 1.01 1.01 0 0 0-.573-.476 2.479 2.479 0 0 0-.886-.148c-.082-.008-.172 0-.262 0ZM151.403 3.21c2.607-2.06 4.114-1.707 5.836-1.526.926.098 1.557-.09 1.786-.74-.074.608-.459.912-1 1.06-.704.197-1.754-.041-2.664-.05-1.384-.008-2.72.493-3.958 1.257ZM137.84 20.452c-.155.36-.655 1.486-.762 1.79-.098.254-.213.426-.36.525-.14.09-.451.14-.918.14-.484 0-.943-.017-1.377-.05v-.008h.418c.729 0 1.213-.074 1.45-.222.418-.262 1.238-1.732 1.549-2.175ZM131.587 9.245c.377.92.361 2.036.058 3.079-.312 1.05-.927 2.044-1.779 2.717a7.864 7.864 0 0 0 1.361-3.243c.196-1.141.123-2.299-.279-3.292a5.42 5.42 0 0 0-.205-.435c.344.287.639.681.844 1.174ZM77.93 9.418c.353.927.312 2.052-.032 3.111-.344 1.06-.992 2.06-1.869 2.75a8.133 8.133 0 0 0 1.46-3.275c.237-1.158.196-2.324-.181-3.325a2.659 2.659 0 0 0-.189-.444c.344.288.631.682.812 1.183ZM53.827 2.595l.508-.025c-.45 2.3-.91 4.606-1.352 6.913-.443 2.315-.894 4.639-1.344 6.962.368-2.323.73-4.639 1.09-6.954.36-2.299.72-4.605 1.098-6.896ZM64.023 2.644l.508-.024c-.45 2.298-.91 4.605-1.352 6.912-.443 2.316-.893 4.639-1.344 6.962.369-2.323.73-4.638 1.09-6.953.369-2.3.73-4.606 1.098-6.897ZM70.842 9.384c.188-.114.393-.23.59-.336-.541 2.29-1.082 4.59-1.615 6.888-.532 2.307-1.065 4.614-1.606 6.937.442-2.257.877-4.515 1.32-6.765.434-2.25.876-4.49 1.31-6.724ZM90.954 7.784c.188-.115.393-.23.59-.337l-2.106 9.04 1.516-8.703ZM144.184 7.332c.205-.082.426-.156.639-.23l-1.352 3.21.713-2.98ZM124.334 9.491c.197-.115.393-.221.59-.336-.475 2.29-.943 4.59-1.41 6.888-.467 2.307-.934 4.614-1.393 6.937.361-2.258.738-4.515 1.107-6.765.368-2.25.737-4.49 1.106-6.724ZM117.376 10.148c.803 2.044.114 4.639-1.541 5.796 1.328-1.79 1.746-4.458.877-6.658a4.56 4.56 0 0 0-.221-.493c.369.345.672.805.885 1.355ZM156.928 9.853c.803 2.044.114 4.638-1.541 5.796 1.328-1.79 1.746-4.458.877-6.658a4.374 4.374 0 0 0-.221-.493c.361.345.672.805.885 1.355ZM103.017 7.365c1.459.427 2.065 1.683 1.36 2.8.197-1.223-.639-2.39-2.212-2.849-.123-.033-.246-.066-.369-.09.41-.017.828.024 1.221.14ZM102.321 12.71c1.459.426 2.065 1.682 1.36 2.799.197-1.223-.639-2.39-2.213-2.849a6.12 6.12 0 0 0-.368-.09c.417-.017.827.024 1.221.14ZM110.738 17.003c-1.459-.5-2.082-1.987-1.385-3.325-.189 1.453.664 2.84 2.237 3.374.123.042.246.074.369.107a3.226 3.226 0 0 1-1.221-.156ZM83.405 14.18c-.05 1.321.36 2.56 2.073 2.306-1.581.706-2.68-.377-2.073-2.307ZM97.149 14.828c-.05 1.321.36 2.561 2.073 2.307-1.581.706-2.68-.378-2.073-2.307Z" fill="#fff"/><path d="M54.508 32.651h-.648v-3.284h-1.737v3.284h-.647V28.81h3.032v3.842ZM58.662 30.632c0 .64-.155 1.15-.459 1.527-.303.378-.688.566-1.155.566-.189 0-.36-.024-.508-.065a1.974 1.974 0 0 1-.451-.205v1.617h-.648v-5.263h.648v.403c.164-.148.336-.263.532-.362.197-.098.41-.147.64-.147.442 0 .778.172 1.032.525.246.345.37.813.37 1.404Zm-.672.074c0-.435-.074-.78-.213-1.018-.14-.238-.369-.361-.68-.361-.18 0-.36.04-.533.123a2.324 2.324 0 0 0-.483.312v2.175c.172.082.311.14.434.173.123.032.254.04.41.04.336 0 .598-.122.779-.369.196-.246.286-.607.286-1.075ZM62.49 30.73c0 .649-.156 1.15-.467 1.503-.312.353-.73.525-1.246.525-.533 0-.95-.18-1.262-.542-.303-.361-.46-.854-.46-1.478 0-.64.157-1.14.476-1.494.312-.353.73-.534 1.246-.534s.934.181 1.246.534c.311.353.467.846.467 1.486Zm-.672 0c0-.5-.09-.87-.27-1.108-.181-.238-.443-.361-.771-.361-.336 0-.598.123-.779.36-.18.239-.27.616-.27 1.11 0 .483.09.845.27 1.091.18.246.443.37.779.37s.59-.124.77-.37c.18-.246.27-.6.27-1.092ZM67.817 30.632c0 .345-.041.64-.123.903a2.09 2.09 0 0 1-.328.648c-.14.173-.295.304-.475.394a1.2 1.2 0 0 1-.55.132.775.775 0 0 1-.376-.082c-.107-.058-.205-.099-.279-.14v1.585h-.64v-1.585c-.13.074-.245.123-.319.164-.082.041-.213.058-.393.058-.435 0-.779-.173-1.033-.526-.262-.353-.385-.829-.385-1.436 0-.32.041-.608.123-.862.082-.255.197-.468.336-.64.131-.165.287-.288.459-.379.172-.09.36-.14.549-.14.131 0 .254.026.369.075.106.05.205.098.303.156v-1.659h.64v1.659c.098-.066.213-.115.344-.165.13-.049.262-.065.401-.065.434 0 .77.172 1.016.517.23.345.361.805.361 1.388Zm-2.778 1.362v-2.561a3.14 3.14 0 0 0-.246-.107.738.738 0 0 0-.279-.04.822.822 0 0 0-.697.344c-.172.23-.254.591-.254 1.084 0 .443.074.796.23 1.059.156.254.377.386.664.386a.922.922 0 0 0 .311-.05c.09-.04.18-.074.27-.115Zm2.114-1.289c0-.435-.074-.788-.221-1.042a.72.72 0 0 0-.656-.386.884.884 0 0 0-.311.05c-.09.032-.189.065-.287.098v2.561c.098.05.18.09.246.115.065.033.155.041.278.041a.795.795 0 0 0 .697-.37c.164-.229.254-.59.254-1.067ZM70.162 32.742c-.615 0-1.09-.172-1.426-.517-.336-.345-.508-.838-.508-1.47 0-.624.163-1.125.491-1.494.328-.37.754-.558 1.287-.558.238 0 .45.032.631.106.18.066.344.18.484.32.139.148.246.329.32.542.073.214.106.468.106.78v.353H68.89c0 .444.115.789.337 1.027.22.238.532.353.934.353.14 0 .278-.017.418-.05.139-.032.262-.074.368-.123.115-.05.214-.107.296-.156.082-.049.147-.098.196-.14h.041v.707c-.074.033-.172.065-.278.115-.115.04-.213.082-.304.106-.123.033-.237.058-.344.082a5.004 5.004 0 0 1-.393.017Zm.754-2.438a1.749 1.749 0 0 0-.066-.452.97.97 0 0 0-.156-.32.697.697 0 0 0-.286-.222 1.117 1.117 0 0 0-.435-.074c-.172 0-.32.025-.434.074-.115.05-.23.123-.328.222a1 1 0 0 0-.221.336c-.05.124-.082.263-.099.427h2.025v.009ZM73.718 32.742c-.262 0-.508-.041-.72-.123a1.473 1.473 0 0 1-.566-.37 1.724 1.724 0 0 1-.37-.624 2.655 2.655 0 0 1-.13-.887c0-.336.049-.632.139-.87.09-.246.213-.451.36-.615.148-.165.337-.296.566-.386.23-.09.467-.14.73-.14.213 0 .41.033.606.09.197.058.369.132.525.206v.722h-.041a3.19 3.19 0 0 0-.443-.287c-.09-.05-.197-.082-.32-.123a1.347 1.347 0 0 0-.352-.05c-.336 0-.607.123-.803.378-.205.255-.303.616-.303 1.075 0 .452.098.805.295 1.06.196.254.467.377.82.377.212 0 .409-.04.597-.131.189-.09.361-.197.509-.337h.04v.723c-.065.033-.147.065-.237.106a2.723 2.723 0 0 1-.558.173c-.09.024-.204.033-.344.033ZM76.963 32.742c-.262 0-.508-.041-.72-.123a1.474 1.474 0 0 1-.566-.37 1.728 1.728 0 0 1-.37-.624 2.657 2.657 0 0 1-.13-.887c0-.336.049-.632.14-.87.09-.246.212-.451.36-.615.147-.165.336-.296.565-.386.23-.09.467-.14.73-.14.213 0 .418.033.606.09a3.5 3.5 0 0 1 .525.206v.722h-.041a2.11 2.11 0 0 0-.18-.131 3.214 3.214 0 0 0-.263-.156c-.09-.05-.197-.082-.32-.123a1.074 1.074 0 0 0-.352-.05c-.336 0-.606.123-.803.378-.205.255-.303.616-.303 1.075 0 .452.098.805.295 1.06.196.254.467.377.82.377.212 0 .409-.04.597-.131.189-.09.361-.197.509-.337h.04v.723c-.065.033-.147.065-.237.106a2.721 2.721 0 0 1-.557.173c-.09.024-.205.033-.345.033ZM81.716 32.651h-.639v-2.865l-1.803 2.865h-.582V28.81h.64v2.824l1.786-2.824h.607v3.842h-.008ZM85.807 30.73c0 .649-.156 1.15-.467 1.503-.312.353-.73.525-1.246.525-.532 0-.95-.18-1.262-.542-.303-.361-.459-.854-.459-1.478 0-.64.156-1.14.475-1.494.312-.353.73-.534 1.246-.534s.934.181 1.246.534c.311.353.467.846.467 1.486Zm-.664 0c0-.5-.09-.87-.27-1.108-.18-.238-.443-.361-.77-.361-.337 0-.599.123-.78.36-.18.239-.27.616-.27 1.11 0 .483.09.845.27 1.091.181.246.443.37.78.37.335 0 .59-.124.77-.37.18-.246.27-.6.27-1.092ZM89.503 32.651h-.647V30.92h-1.738v1.732h-.647V28.81h.647v1.552h1.738v-1.552h.647v3.842ZM92.576 32.241c-.049.041-.122.09-.213.164a1.32 1.32 0 0 1-.254.164 2.173 2.173 0 0 1-.328.14c-.106.033-.254.05-.45.05-.156 0-.312-.034-.451-.091a1.06 1.06 0 0 1-.377-.255 1.076 1.076 0 0 1-.246-.394 1.253 1.253 0 0 1-.09-.492c0-.263.057-.493.172-.682.115-.188.287-.336.533-.443.213-.098.467-.164.762-.205.295-.041.606-.066.95-.082v-.123a.962.962 0 0 0-.065-.37.439.439 0 0 0-.189-.213.779.779 0 0 0-.303-.107 2.696 2.696 0 0 0-.368-.025c-.148 0-.328.025-.525.066a2.904 2.904 0 0 0-.606.197h-.041v-.657c.123-.033.286-.074.508-.115.22-.04.442-.065.655-.065.262 0 .484.024.664.065.18.041.344.115.492.222.14.107.246.238.311.41.066.165.107.37.107.616v2.627h-.64v-.402h-.008Zm0-.534V30.64c-.155.017-.344.033-.581.058a3.285 3.285 0 0 0-.566.098.958.958 0 0 0-.426.246c-.115.107-.172.263-.172.46 0 .222.065.386.188.501.123.115.303.172.541.172.205 0 .385-.04.55-.131.163-.099.319-.205.466-.337ZM97.092 32.652h-.648v-3.3h-1.32a178.509 178.509 0 0 1-.048 1.026c-.017.36-.041.665-.074.903a3.2 3.2 0 0 1-.123.582c-.05.148-.107.271-.164.354a1.365 1.365 0 0 1-.205.23.921.921 0 0 1-.254.155.869.869 0 0 1-.303.05h-.263v-.567h.14a.57.57 0 0 0 .164-.024.37.37 0 0 0 .139-.09c.115-.116.197-.313.254-.592.05-.279.09-.673.115-1.182l.025-.665.024-.739h2.524v3.859h.017ZM100.935 31.46c0 .19-.041.354-.115.51-.074.148-.172.27-.303.37a1.429 1.429 0 0 1-.484.246c-.172.049-.393.074-.663.074h-1.345v-3.843h.648v1.495h.713c.287 0 .516.016.672.04.156.033.32.107.475.222.132.099.23.222.295.378.074.156.107.32.107.509Zm-.672.017a.757.757 0 0 0-.058-.312.491.491 0 0 0-.196-.213.86.86 0 0 0-.328-.107 7.778 7.778 0 0 0-.525-.016h-.483v1.305h.467c.23 0 .41-.008.533-.033a.824.824 0 0 0 .328-.115.562.562 0 0 0 .204-.213.633.633 0 0 0 .058-.296ZM104.574 32.651h-.647V30.92h-1.738v1.732h-.647V28.81h.647v1.552h1.738v-1.552h.647v3.842ZM108.664 30.73c0 .649-.155 1.15-.467 1.503-.311.353-.729.525-1.246.525-.532 0-.95-.18-1.262-.542-.303-.361-.459-.854-.459-1.478 0-.64.156-1.14.476-1.494.311-.353.729-.534 1.245-.534.517 0 .935.181 1.246.534.312.345.467.846.467 1.486Zm-.663 0c0-.5-.091-.87-.271-1.108-.18-.238-.434-.361-.77-.361s-.599.123-.779.36c-.18.239-.27.616-.27 1.11 0 .483.09.845.27 1.091.18.246.443.37.779.37.328 0 .59-.124.77-.37.18-.23.271-.6.271-1.092ZM110.992 32.742c-.615 0-1.09-.172-1.426-.517-.336-.345-.508-.838-.508-1.47 0-.624.163-1.125.491-1.494.328-.37.754-.558 1.287-.558.238 0 .451.032.631.106.18.066.344.18.484.32.139.148.245.329.319.542.074.214.107.468.107.78v.353h-2.656c0 .444.115.789.336 1.027.222.238.533.353.935.353a1.95 1.95 0 0 0 .787-.172c.114-.05.213-.108.295-.157.082-.049.147-.098.196-.14h.041v.707c-.074.033-.172.065-.278.115-.115.04-.213.082-.304.106-.123.033-.237.058-.344.082a4.997 4.997 0 0 1-.393.017Zm.754-2.438a1.743 1.743 0 0 0-.066-.452.985.985 0 0 0-.155-.32.704.704 0 0 0-.287-.222 1.122 1.122 0 0 0-.435-.074c-.172 0-.319.025-.434.074a1.003 1.003 0 0 0-.549.558 1.586 1.586 0 0 0-.099.427h2.025v.009ZM116.753 32.742c-.262 0-.508-.041-.721-.123a1.475 1.475 0 0 1-.565-.37 1.72 1.72 0 0 1-.369-.624 2.66 2.66 0 0 1-.131-.887c0-.336.049-.632.139-.87a1.87 1.87 0 0 1 .361-.615c.147-.165.336-.296.565-.386.23-.09.467-.14.73-.14.213 0 .41.033.606.09.197.058.369.132.525.206v.722h-.041a2.977 2.977 0 0 0-.443-.287c-.09-.05-.196-.082-.32-.123a1.343 1.343 0 0 0-.352-.05c-.336 0-.606.123-.803.378-.205.255-.303.616-.303 1.075 0 .452.098.805.295 1.06.196.254.467.377.819.377.213 0 .41-.04.599-.131.188-.09.36-.197.508-.337h.041v.723c-.066.033-.148.065-.238.106a2.68 2.68 0 0 1-.557.173 1.401 1.401 0 0 1-.345.033ZM121.629 30.73c0 .649-.156 1.15-.467 1.503-.311.353-.729.525-1.246.525-.532 0-.95-.18-1.262-.542-.303-.361-.459-.854-.459-1.478 0-.64.156-1.14.476-1.494.311-.353.729-.534 1.245-.534.517 0 .935.181 1.246.534.311.345.467.846.467 1.486Zm-.664 0c0-.5-.09-.87-.27-1.108-.18-.238-.434-.361-.77-.361s-.599.123-.779.36c-.18.239-.27.616-.27 1.11 0 .483.09.845.27 1.091.18.246.443.37.779.37.327 0 .59-.124.77-.37.18-.23.27-.6.27-1.092ZM125.449 30.73c0 .649-.156 1.15-.468 1.503-.311.353-.729.525-1.245.525-.533 0-.951-.18-1.262-.542-.304-.361-.459-.854-.459-1.478 0-.64.155-1.14.475-1.494.312-.353.729-.534 1.246-.534.516 0 .934.181 1.245.534.312.345.468.846.468 1.486Zm-.664 0c0-.5-.09-.87-.271-1.108-.18-.238-.434-.361-.77-.361s-.598.123-.779.36c-.18.239-.27.616-.27 1.11 0 .483.09.845.27 1.091.181.246.443.37.779.37.328 0 .59-.124.77-.37.181-.23.271-.6.271-1.092ZM128.833 29.376c.147.147.262.344.344.574.082.23.123.501.123.813 0 .295-.049.567-.139.821-.09.254-.222.46-.386.632a1.6 1.6 0 0 1-1.204.542 1.77 1.77 0 0 1-.664-.123 1.371 1.371 0 0 1-.516-.386 2.062 2.062 0 0 1-.394-.82c-.09-.33-.131-.732-.131-1.216a5.56 5.56 0 0 1 .123-1.166c.049-.221.107-.427.189-.616.073-.188.18-.353.303-.476.164-.172.377-.304.639-.402.262-.099.607-.172 1.041-.214.156-.016.319-.024.492-.04.172-.017.311-.025.401-.033v.599a44.09 44.09 0 0 1-.385.025c-.131.008-.287.024-.467.032a3.89 3.89 0 0 0-.721.123c-.254.066-.443.165-.574.296a1.01 1.01 0 0 0-.23.427 3.13 3.13 0 0 0-.122.616c.172-.123.352-.222.54-.312.197-.082.402-.123.623-.123.205 0 .41.032.599.106.204.066.368.173.516.32Zm-.189 1.428c0-.41-.09-.723-.278-.936-.181-.221-.443-.328-.787-.328-.188 0-.369.033-.541.09a2.772 2.772 0 0 0-.492.246c-.008.058-.008.123-.016.205-.008.083-.008.148-.008.214 0 .402.033.723.098.977.066.246.156.443.271.591a.86.86 0 0 0 .327.263.94.94 0 0 0 .377.074c.328 0 .59-.123.771-.378.188-.246.278-.591.278-1.018ZM134.898 33.58h-.598v-.92h-4.32v-3.843h.648v3.293h1.303v-3.293h.647v3.293h1.304v-3.293h.647v3.293h.385v1.47h-.016ZM137.201 32.742c-.615 0-1.09-.172-1.426-.517-.336-.345-.508-.838-.508-1.47 0-.624.163-1.125.491-1.494.328-.37.754-.558 1.287-.558.238 0 .451.032.631.106.18.066.344.18.484.32.139.148.246.329.319.542.074.214.107.468.107.78v.353h-2.656c0 .444.115.789.337 1.027.221.238.532.353.934.353a1.95 1.95 0 0 0 .787-.172c.114-.05.213-.108.295-.157.082-.049.147-.098.196-.14h.041v.707c-.074.033-.172.065-.278.115-.115.04-.213.082-.304.106-.123.033-.237.058-.344.082a4.997 4.997 0 0 1-.393.017Zm.754-2.438a1.743 1.743 0 0 0-.066-.452.967.967 0 0 0-.156-.32.694.694 0 0 0-.286-.222 1.122 1.122 0 0 0-.435-.074c-.172 0-.319.025-.434.074a1.003 1.003 0 0 0-.549.558 1.586 1.586 0 0 0-.099.427h2.025v.009ZM140.766 32.742c-.262 0-.508-.041-.721-.123a1.467 1.467 0 0 1-.565-.37 1.72 1.72 0 0 1-.369-.624 2.634 2.634 0 0 1-.132-.887c0-.336.05-.632.14-.87a1.87 1.87 0 0 1 .361-.615c.147-.165.336-.296.565-.386.229-.09.467-.14.729-.14.214 0 .418.033.607.09.197.058.369.132.524.206v.722h-.041a2.027 2.027 0 0 0-.18-.131 3.305 3.305 0 0 0-.262-.156c-.09-.05-.197-.082-.32-.123a1.074 1.074 0 0 0-.352-.05c-.336 0-.607.123-.803.378-.205.255-.304.616-.304 1.075 0 .452.099.805.295 1.06.197.254.468.377.82.377.213 0 .41-.04.598-.131.189-.09.361-.197.508-.337h.041v.723c-.065.033-.147.065-.237.106a2.47 2.47 0 0 1-.558.172 1.388 1.388 0 0 1-.344.034ZM145.29 29.376h-1.303v3.275h-.648v-3.275h-1.303v-.567h3.254v.567ZM148.773 31.494c0 .189-.032.353-.106.492-.074.14-.172.263-.295.362-.156.123-.32.205-.492.246a2.658 2.658 0 0 1-.615.066h-1.499v-3.843h1.409c.279 0 .492.009.615.025a.98.98 0 0 1 .385.131.681.681 0 0 1 .295.296.893.893 0 0 1 .099.435c0 .18-.05.345-.148.493a.948.948 0 0 1-.401.336l.016.025c.205.05.385.156.524.32.14.164.213.361.213.616Zm-.86-1.7a.632.632 0 0 0-.041-.23.288.288 0 0 0-.148-.147.733.733 0 0 0-.278-.074c-.099-.008-.246-.008-.426-.008h-.615v1.042h.746c.155 0 .27-.008.336-.024a.849.849 0 0 0 .221-.099.407.407 0 0 0 .164-.189.809.809 0 0 0 .041-.27Zm.197 1.7a.66.66 0 0 0-.058-.312.59.59 0 0 0-.246-.214.696.696 0 0 0-.254-.074 4.322 4.322 0 0 0-.385-.016h-.762v1.256h.557c.23 0 .41-.008.541-.024a.91.91 0 0 0 .328-.107.644.644 0 0 0 .213-.205.577.577 0 0 0 .066-.304ZM152.617 30.73c0 .649-.156 1.15-.468 1.503-.311.353-.729.525-1.245.525-.533 0-.951-.18-1.262-.542-.304-.361-.459-.854-.459-1.478 0-.64.155-1.14.475-1.494.311-.353.729-.534 1.246-.534.516 0 .934.181 1.245.534.312.345.468.846.468 1.486Zm-.672 0c0-.5-.091-.87-.271-1.108-.18-.238-.434-.361-.77-.361s-.599.123-.779.36c-.18.239-.27.616-.27 1.11 0 .483.09.845.27 1.091.18.246.443.37.779.37.327 0 .59-.124.77-.37.18-.23.271-.6.271-1.092ZM73.809 36.51c0 .649-.156 1.141-.467 1.494-.312.354-.722.534-1.23.534-.5 0-.901-.164-1.196-.5-.295-.33-.46-.78-.484-1.355h-.68v1.748h-.647V34.59h.647v1.568h.688c.05-.525.23-.936.525-1.231.295-.296.672-.444 1.14-.444.54 0 .958.181 1.253.55.303.37.45.863.45 1.478Zm-.664 0c0-.492-.09-.862-.27-1.108-.18-.246-.435-.37-.763-.37-.336 0-.59.124-.77.37-.18.246-.27.616-.27 1.1 0 .484.09.846.27 1.092.18.246.434.37.762.37s.582-.124.762-.362c.189-.221.279-.59.279-1.092ZM77.694 36.412c0 .64-.156 1.15-.46 1.527-.303.377-.688.566-1.155.566-.188 0-.36-.024-.508-.066a1.971 1.971 0 0 1-.45-.205v1.61h-.648V34.58h.647v.402c.164-.148.336-.262.533-.361.197-.099.41-.148.639-.148.443 0 .779.173 1.033.526.245.353.368.82.368 1.412Zm-.664.074c0-.435-.074-.78-.213-1.018-.14-.239-.37-.362-.68-.362-.181 0-.361.041-.533.123a2.32 2.32 0 0 0-.484.313v2.175c.172.082.311.14.434.173.123.032.263.04.418.04.337 0 .599-.123.78-.369.18-.246.278-.607.278-1.075ZM81.39 38.431h-.64v-2.865l-1.803 2.865h-.582v-3.842h.64v2.824l1.786-2.824h.606v3.842h-.008ZM83.848 38.522c-.262 0-.508-.042-.721-.124a1.472 1.472 0 0 1-.566-.37 1.727 1.727 0 0 1-.369-.623 2.658 2.658 0 0 1-.13-.887c0-.336.049-.632.139-.87.09-.246.213-.451.36-.616.148-.164.336-.295.566-.386.23-.09.467-.14.73-.14.212 0 .41.034.606.091.196.058.369.131.524.205v.723h-.04a3.112 3.112 0 0 0-.443-.287c-.09-.05-.197-.082-.32-.124a1.073 1.073 0 0 0-.352-.049c-.336 0-.607.123-.803.378-.205.254-.304.616-.304 1.075 0 .452.099.805.295 1.06.197.254.468.377.82.377.213 0 .41-.041.598-.131.189-.09.36-.197.508-.337h.041v.723c-.065.032-.147.065-.237.106a2.721 2.721 0 0 1-.558.173c-.09.024-.205.033-.344.033ZM88.372 35.155h-1.303v3.276h-.648v-3.276h-1.303v-.566h3.254v.566ZM92.01 36.51c0 .648-.156 1.15-.467 1.502-.312.353-.73.526-1.246.526-.532 0-.95-.18-1.262-.542-.303-.361-.459-.854-.459-1.478 0-.64.156-1.141.475-1.494.312-.353.73-.534 1.246-.534.517 0 .934.18 1.246.534.311.345.467.846.467 1.486Zm-.664 0c0-.501-.09-.87-.27-1.109-.18-.238-.443-.36-.77-.36-.337 0-.599.122-.78.36-.18.239-.27.616-.27 1.109 0 .484.09.845.27 1.092.181.246.443.37.78.37.327 0 .59-.124.77-.37.18-.23.27-.6.27-1.092ZM95.682 37.274c0 .188-.033.353-.107.492-.073.14-.172.263-.295.361-.155.124-.32.206-.491.247a2.66 2.66 0 0 1-.615.065h-1.508v-3.842h1.41c.278 0 .491.008.614.025.123.016.263.057.386.131a.682.682 0 0 1 .295.296.899.899 0 0 1 .098.435.87.87 0 0 1-.148.492.945.945 0 0 1-.401.337l.016.025c.205.049.385.156.525.32.139.164.22.361.22.616Zm-.86-1.7a.643.643 0 0 0-.041-.23.289.289 0 0 0-.148-.148.736.736 0 0 0-.279-.073c-.098-.009-.246-.009-.426-.009h-.614v1.051h.745c.156 0 .27-.008.336-.024a.83.83 0 0 0 .222-.099.407.407 0 0 0 .163-.189.913.913 0 0 0 .041-.279Zm.196 1.7a.663.663 0 0 0-.057-.312.59.59 0 0 0-.246-.214.694.694 0 0 0-.254-.074 4.293 4.293 0 0 0-.385-.016h-.762v1.256h.557c.23 0 .41-.008.54-.025a.91.91 0 0 0 .329-.106.642.642 0 0 0 .213-.206.666.666 0 0 0 .065-.303ZM101.592 38.431h-.64v-2.865l-1.803 2.865h-.582v-3.842h.64v2.824l1.786-2.824h.607v3.842h-.008ZM106.87 38.02c-.05.042-.123.091-.214.165-.09.074-.172.123-.254.164a2.119 2.119 0 0 1-.328.14c-.106.033-.254.049-.45.049a1.19 1.19 0 0 1-.451-.09 1.065 1.065 0 0 1-.377-.255 1.063 1.063 0 0 1-.246-.394 1.262 1.262 0 0 1-.09-.492c0-.263.057-.493.172-.682.115-.189.287-.336.533-.443.213-.099.467-.165.762-.205.295-.041.606-.066.951-.082v-.124a.96.96 0 0 0-.066-.369.437.437 0 0 0-.188-.214.784.784 0 0 0-.304-.106 2.702 2.702 0 0 0-.368-.025 2.68 2.68 0 0 0-.525.066 2.895 2.895 0 0 0-.606.197h-.041v-.657a6.51 6.51 0 0 1 .508-.115 3.61 3.61 0 0 1 .655-.066c.263 0 .484.025.664.066.181.041.344.115.492.222a.915.915 0 0 1 .311.41c.066.164.107.37.107.616v2.627h-.639v-.402h-.008Zm0-.533V36.42l-.582.057a3.286 3.286 0 0 0-.566.099.962.962 0 0 0-.426.246c-.115.107-.172.263-.172.46 0 .222.065.386.188.5.123.116.304.173.541.173.205 0 .385-.04.549-.131.164-.099.32-.206.468-.337ZM111.704 39.359h-.598v-.936h-2.524v.936h-.599v-1.47h.255c.221-.36.393-.829.532-1.404a8.051 8.051 0 0 0 .205-1.888h2.352v3.292h.385v1.47h-.008Zm-1.024-1.478v-2.75h-1.098a7.435 7.435 0 0 1-.238 1.568c-.131.476-.287.87-.475 1.182h1.811ZM115.352 37.274a1.036 1.036 0 0 1-.402.853 1.256 1.256 0 0 1-.491.247 2.658 2.658 0 0 1-.615.065h-1.508v-3.842h1.41c.278 0 .491.008.614.025.123.016.263.057.386.131a.687.687 0 0 1 .295.296.904.904 0 0 1 .098.435c0 .18-.049.345-.148.492a.94.94 0 0 1-.401.337l.016.025a.98.98 0 0 1 .525.32.913.913 0 0 1 .221.616Zm-.861-1.7a.632.632 0 0 0-.041-.23.287.287 0 0 0-.147-.148.735.735 0 0 0-.279-.073c-.098-.009-.246-.009-.426-.009h-.614v1.051h.745c.156 0 .271-.008.336-.024a.829.829 0 0 0 .222-.099.405.405 0 0 0 .163-.189.898.898 0 0 0 .041-.279Zm.197 1.7a.663.663 0 0 0-.057-.312.59.59 0 0 0-.246-.214.696.696 0 0 0-.254-.074 4.284 4.284 0 0 0-.385-.016h-.762v1.256h.557c.229 0 .41-.008.541-.025a.905.905 0 0 0 .327-.106.647.647 0 0 0 .214-.206.667.667 0 0 0 .065-.303ZM119.187 36.51c0 .648-.156 1.15-.467 1.502-.312.353-.73.526-1.246.526-.533 0-.951-.18-1.262-.542-.303-.361-.459-.854-.459-1.478 0-.64.156-1.141.475-1.494.312-.353.73-.534 1.246-.534s.934.18 1.246.534c.311.345.467.846.467 1.486Zm-.664 0c0-.501-.09-.87-.271-1.109-.18-.238-.442-.36-.77-.36-.336 0-.598.122-.778.36-.181.239-.271.616-.271 1.109 0 .484.09.845.271 1.092.18.246.442.37.778.37s.59-.124.77-.37c.181-.247.271-.6.271-1.092ZM122.94 38.431h-.803l-1.319-1.773h-.32v1.773h-.647v-3.842h.647v1.675a.863.863 0 0 0 .426-.107c.115-.066.222-.197.303-.394.025-.058.05-.123.082-.197.033-.074.058-.14.074-.197.099-.28.238-.485.418-.6.18-.114.41-.172.697-.172h.172v.558h-.148c-.18 0-.319.041-.409.115-.091.074-.164.214-.23.41a1.544 1.544 0 0 1-.229.469.933.933 0 0 1-.287.254l1.573 2.028ZM125.497 38.02c-.049.042-.123.091-.213.165-.09.074-.172.123-.254.164a2.16 2.16 0 0 1-.328.14c-.106.033-.254.049-.45.049a1.19 1.19 0 0 1-.451-.09 1.048 1.048 0 0 1-.377-.255 1.063 1.063 0 0 1-.246-.394 1.244 1.244 0 0 1-.09-.492c0-.263.057-.493.172-.682.115-.189.287-.336.533-.443.213-.099.467-.165.762-.205.295-.041.606-.066.951-.082v-.124a.96.96 0 0 0-.066-.369.439.439 0 0 0-.189-.214.773.773 0 0 0-.303-.106 2.706 2.706 0 0 0-.369-.025 2.68 2.68 0 0 0-.524.066 2.903 2.903 0 0 0-.607.197h-.041v-.657c.123-.033.287-.074.509-.115a3.61 3.61 0 0 1 .655-.066c.263 0 .484.025.664.066.18.041.344.115.492.222a.915.915 0 0 1 .311.41c.066.164.107.37.107.616v2.627h-.639v-.402h-.009Zm0-.533V36.42l-.582.057a3.29 3.29 0 0 0-.565.099.956.956 0 0 0-.426.246c-.115.107-.172.263-.172.46 0 .222.065.386.188.5.123.116.303.173.541.173.205 0 .385-.04.549-.131.164-.099.32-.206.467-.337ZM129.85 35.155h-1.303v3.276h-.648v-3.276h-1.311v-.566h3.254v.566h.008ZM133.489 36.51c0 .648-.156 1.15-.468 1.502-.311.353-.729.526-1.245.526-.533 0-.951-.18-1.262-.542-.304-.361-.459-.854-.459-1.478 0-.64.155-1.141.475-1.494.311-.353.729-.534 1.246-.534.516 0 .934.18 1.245.534.312.353.468.846.468 1.486Zm-.672 0c0-.501-.091-.87-.271-1.109-.18-.238-.442-.36-.77-.36-.336 0-.599.122-.779.36-.18.239-.27.616-.27 1.109 0 .484.09.845.27 1.092.18.246.443.37.779.37s.59-.124.77-.37c.18-.247.271-.6.271-1.092ZM137.161 37.274a1.036 1.036 0 0 1-.402.853c-.156.124-.32.206-.492.247a2.655 2.655 0 0 1-.614.065h-1.508v-3.842h1.409c.279 0 .492.008.615.025a.98.98 0 0 1 .385.131.682.682 0 0 1 .295.296.893.893 0 0 1 .098.435c0 .18-.049.345-.147.492a.949.949 0 0 1-.402.337l.017.025c.205.049.385.156.524.32a.913.913 0 0 1 .222.616Zm-.869-1.7a.654.654 0 0 0-.041-.23.289.289 0 0 0-.148-.148.734.734 0 0 0-.278-.073c-.099-.009-.246-.009-.427-.009h-.614v1.051h.746c.155 0 .27-.008.336-.024a.838.838 0 0 0 .221-.099.407.407 0 0 0 .164-.189.929.929 0 0 0 .041-.279Zm.196 1.7a.663.663 0 0 0-.057-.312.59.59 0 0 0-.246-.214.696.696 0 0 0-.254-.074 4.284 4.284 0 0 0-.385-.016h-.762v1.256h.557c.23 0 .41-.008.541-.025a.91.91 0 0 0 .328-.106.643.643 0 0 0 .213-.206.577.577 0 0 0 .065-.303Z" fill="#555"/><path d="M19.914 39.925C8.948 39.925.024 30.986.024 20 .023 9.015 8.947.075 19.913.075c10.966 0 19.89 8.94 19.89 19.925 0 10.985-8.924 19.925-19.89 19.925Zm0-38.668C9.588 1.257 1.195 9.664 1.195 20c0 10.336 8.393 18.752 18.72 18.752 10.317 0 18.718-8.408 18.718-18.752s-8.4-18.743-18.719-18.743Z" fill="#F04149"/><path fill-rule="evenodd" clip-rule="evenodd" d="M20.267 3.44c-.32.017-.598-.032-.746.23a.545.545 0 0 0-.032.477c.032.057.049.09.024.14l-.23-.124-.942 1.667-.41-.214.746-1.313-.532-.28-.32.296-.36-.18.081-.42-1.368-.705-.582 1.018-.336.599.049.025.172-.32c.016-.042.066-.058.107-.033l.352.172c.041.016.05.066.033.099l-.205.377.23.107.008-.016c.008-.017.024-.017.04-.017h.017l.008-.016c.025-.05.09-.074.14-.05l.114.058c.008.008.017.016.008.024l-.008.009h.008c.009 0 .017.008.017.024A.384.384 0 0 1 16.75 5a.357.357 0 0 1 .123.526.735.735 0 0 1-.188.172c0 .009.008.017.008.025.016 0 .033 0 .05.008.04.025.065.066.048.115h.008l.017.008.008-.024c.008-.009.016-.009.025-.009l.008.009a.025.025 0 0 1 .008.016l-.008.025.016.008c.017.008.017.016.008.033l-.008.008c-.008.016-.024.016-.033.016l-.016-.008-.016.025c-.009.008-.017.008-.017.008l-.008-.008c-.008 0-.008-.017-.008-.017l.016-.024-.016-.008s-.008 0-.008-.009a.114.114 0 0 1-.123.025c-.017-.008-.033-.016-.041-.033-.008.008-.017.008-.025.008a.554.554 0 0 1-.04.247c-.075.213-.345.303-.517.213-.131-.057-.188-.197-.172-.353-.008.008-.016.008-.025 0 0 0-.008 0-.008-.008v.008c-.008.008-.016.016-.033.008l-.115-.057c-.049-.025-.065-.082-.04-.132l.008-.016h-.017c-.016-.008-.016-.025-.008-.033l.008-.016-.23-.107-.204.378c-.025.04-.066.057-.107.033l-.352-.173c-.041-.016-.05-.066-.033-.098l.172-.32-.065-.033-.017.024-.377.657-.582 1.018 1.37.706.319-.295.36.18-.082.419.533.27.746-1.313.41.214-6.032 10.664a.527.527 0 0 0-.107-.082.462.462 0 0 0-.614.197.427.427 0 0 0 .172.6.39.39 0 0 0 .139.04l-.033.066-.63.255c-.025.386.024.796-.165 1.124a1.82 1.82 0 0 0-.991-1.46c-.96-.493-2.18-.116-2.73.845-.549.96-.213 2.134.746 2.627.14.074.279.123.426.156a1.793 1.793 0 0 0-.54.977v.016c-.009.025-.009.058-.009.082 0 .025-.008.058-.008.083 0 .057-.008.106 0 .164 0 .024 0 .049.008.082 0 .033 0 .057.009.09 0 .025.008.05.008.074.008.025.008.05.016.082v.008c.008.025.016.058.025.082.008.017.008.041.016.058 0 .008.008.008.008.016l.025.058c.008.024.024.057.033.082.008.025.024.04.032.066.009.024.025.049.033.065.017.025.033.05.041.066.008.008.017.025.025.033 0 .008.008.008.008.016.008.017.025.025.033.041a.065.065 0 0 0 .033.033c.016.017.032.041.049.058l.008.008c.008.016.025.024.033.04.024.025.057.058.09.083.024.025.057.05.09.074.008 0 .008.008.016.008l.009.008c.032.025.065.041.098.066.04.025.074.05.115.066.04.024.082.04.123.057a.569.569 0 0 0 .106.041c.008 0 .025.008.033.008.033.009.074.017.106.025l.115.025c.017 0 .041.008.058.008.032 0 .057.008.09.008h.18c.057 0 .107-.008.164-.008h.016c.025 0 .041-.008.066-.008.008 0 .024 0 .033-.009.016 0 .04-.008.057-.008.025-.008.057-.008.082-.016l.082-.025c.033-.008.066-.024.107-.033.008 0 .016-.008.016-.008.033-.016.074-.025.106-.041.025-.017.058-.025.082-.041.009-.008.025-.008.033-.016h.008c.025-.017.058-.033.082-.05.009-.008.017-.008.025-.016s.016-.008.024-.017l.074-.049.017-.016.016-.017c.016-.008.025-.024.041-.033.008-.008.016-.008.025-.016.008 0 .008-.008.016-.008.148-.131.27-.28.369-.46.098-.164.155-.336.188-.517.107.098.23.18.37.254.958.493 2.18.115 2.72-.845.55-.96.213-2.143-.746-2.636a2.011 2.011 0 0 0-1.836.009c.197-.329.582-.51.91-.747l-.115-.64.041-.066a.43.43 0 0 0 .115.09.466.466 0 0 0 .615-.189.431.431 0 0 0-.164-.6.363.363 0 0 0-.123-.04l7.892-13.785-.213-.107c.041-.057.082-.057.164-.065a.583.583 0 0 0 .369-.271c.115-.255-.09-.46-.238-.714Zm-7.909 18.005c.672.345.902 1.174.517 1.839-.385.673-1.238.936-1.91.591a1.283 1.283 0 0 1-.639-.755l-.738.279c.148.296.148.657-.04.977-.115.197-.271.345-.46.443-.032.017-.057.033-.09.041a.468.468 0 0 1-.098.033c-.008 0-.016.008-.025.008a1.187 1.187 0 0 1-.18.033c-.025 0-.057.008-.082.008h-.016c-.066 0-.14 0-.205-.016-.025-.008-.058-.008-.082-.017h-.033c-.024-.008-.057-.016-.082-.032-.033-.017-.065-.025-.098-.041a.565.565 0 0 1-.09-.058l-.074-.05a5.74 5.74 0 0 0-.025-.024c-.024-.016-.04-.04-.065-.057-.05-.05-.09-.099-.131-.156a.33.33 0 0 1-.041-.074c0-.008-.009-.008-.009-.017-.016-.032-.032-.057-.04-.09-.009-.033-.025-.057-.033-.09 0-.008 0-.017-.009-.025 0-.008-.008-.016-.008-.024-.016-.05-.016-.107-.024-.156-.017-.206.024-.41.139-.608.18-.32.5-.517.844-.566l-.156-.74a1.41 1.41 0 0 1-1.016-.09c-.672-.345-.901-1.165-.524-1.839.385-.673 1.237-.936 1.91-.59.606.311.852 1.009.614 1.641l.303.156-.115.197c-.196-.008-.368.066-.45.214-.09.164-.033.377.123.533a.236.236 0 0 0 .04.296l-.024.024-.016.025-.041-.024c-.025-.017-.058 0-.074.024-.017.025-.008.058.016.066l.041.024-.016.025c-.025.033-.008.082.024.099a.083.083 0 0 0 .107-.033l.016-.025.041.025c.025.016.058 0 .074-.025.016-.025.008-.057-.016-.066l-.041-.024.016-.025c.008-.008.008-.024.008-.033a.275.275 0 0 0 .287-.123c.238.041.475-.024.566-.197.082-.148.049-.328-.058-.476l.115-.197.303.156c.41-.517 1.164-.706 1.77-.394Z" fill="#2C2C2C"/><path d="m34.372 28.218-.107.017v-.156l-.262.049v-.172L20.35 30.369c.574-.36 3.254-1.986 6-2.7 2.737-.715 6.343-.518 6.86-.485v.148h.13v-.32l-.065-.009c-.041 0-4-.287-6.958.485-3.098.813-6.114 2.775-6.147 2.791l-.041.025v.082c-.025 0-.05 0-.074-.008l-.008-.009v-.008c.189-.32 1.959-3.243 3.967-3.858 1.467-.452 2.843-.247 3.958-.09.541.081 1 .147 1.41.139 1.114-.025 2.467-.838 2.836-1.068v1.265h.13V25.18l-.098.066c-.016.008-1.63 1.083-2.876 1.108-.402.008-.86-.058-1.394-.14-1.122-.164-2.516-.37-4 .09-1.13.345-2.17 1.404-2.851 2.225a13.663 13.663 0 0 0-1.205 1.724l-.016.025v.082h-.009v-.082l-.016-.024c-.008-.009-.475-.83-1.205-1.725-.68-.829-1.72-1.88-2.852-2.225-1.483-.46-2.876-.254-4-.09-.532.074-.99.148-1.392.14-1.246-.025-2.86-1.1-2.877-1.108l-.098-.066v1.568h.13v-1.265c.37.239 1.722 1.043 2.837 1.068.41.008.868-.058 1.41-.14 1.105-.164 2.49-.361 3.958.09 2.008.616 3.778 3.539 3.966 3.86v.016c-.024 0-.057 0-.082.008v-.082l-.04-.025c-.034-.016-3.041-1.979-6.147-2.791-2.959-.772-6.917-.485-6.958-.485l-.066.009v.32h.131v-.148c.525-.033 4.122-.23 6.86.484 2.745.723 5.425 2.34 5.999 2.701L5.802 27.956v.172l-.262-.05v.157l-.107-.017v.493h-.016v.567c0 .172.164.328.377.353l13.03 1.814-.114.115c.328.361.754.558 1.213.558.476 0 .918-.213 1.246-.6l-.09-.098 12.916-1.781c.221-.033.377-.181.377-.353v-1.068Zm-.238.05-12.94 2.282-.37.05-.008-.009 13.318-2.348v.025Zm-.27-.115-13.244 2.34c-.017-.009-.041-.017-.066-.025l13.302-2.348v.033h.008ZM20.3 30.403c-.008 0-.008 0 0 0-.008 0-.008 0 0 0ZM5.966 28.12l13.301 2.348a.398.398 0 0 0-.057.024l-13.244-2.34v-.032Zm-.262.123 13.318 2.348s-.009 0-.009.008l-.442-.065-12.867-2.266v-.025Zm-.172.476.065.008v-.345l9.319 1.65-9.384-1.313Zm19.308 1.322 9.4-1.659v.354l-9.4 1.305Z" fill="#2C2C2C"/><path fill-rule="evenodd" clip-rule="evenodd" d="M32.978 23.982c-.27.024-.46-.041-.582-.255a5.177 5.177 0 0 1-.336-.78c-.082 0-.14-.033-.123-.09.09-.09.131-.18.098-.238-.016-.041-.073-.058-.14-.058-.09-.016-.138-.032-.155-.049-.049-.386-.287-.722-.426-1.034-.131-.28-.213-.583-.36-.862a2.067 2.067 0 0 0-.19-.28c.894-.525 1.755-1.075 2.402-1.732l-.836-.074c-.237.583-.958 1.248-1.68 1.659-.04-.058-.09-.115-.13-.173a3.534 3.534 0 0 1-.042-.492L22.283 4.787c-.451-.813-.87-1.034-1.263-1.338.041.5.009.985.451 1.806L29.43 20.13c.131.082.262.18.385.296.025.066.05.14.074.205-.713.419-1.647.706-2.254.6l-.369.771c.886-.221 1.787-.69 2.688-1.198.041.106.082.213.14.311.147.271.369.501.524.764.205.353.377.649.64.92.008.016-.009.057-.033.123-.058.074-.074.14-.05.18.034.058.14.066.271.033.05.017.05.09.008.156.131.164.328.427.476.698.114.213.065.419-.09.64.147-.008.278.009.516-.098 0 .016-.008.024-.016.049a.356.356 0 0 0 .032.27c.09.157.238.14.418.157.066-.14.172-.255.082-.41a.395.395 0 0 0-.213-.173c-.033-.008-.057-.008-.074-.025.246-.156.295-.287.394-.418Zm-2.516-3.145L23.405 7.841l-1.024-1.954 1.09 1.913 7.056 12.996.189.419-.254-.378Z" fill="#2C2C2C"/></g><defs><clipPath id="a"><path fill="#fff" d="M0 0h160v40H0z"/></clipPath></defs></svg>